<svg width="288" height="77" viewBox="0 0 288 77" fill="none" xmlns="http://www.w3.org/2000/svg">
<path d="M7.54545 15.4545L21.3636 54.6364H21.9091L35.7273 15.4545H41.6364L24.5455 62H18.7273L1.63636 15.4545H7.54545ZM85.7955 15.4545V62H80.3409L54.9773 25.4545H54.5227V62H48.8864V15.4545H54.3409L79.7955 52.0909H80.25V15.4545H85.7955Z" fill="#0710E8"/>
<path d="M106.818 38V14.7273H120.864V17.2273H109.636V25.0909H120.136V27.5909H109.636V35.5H121.045V38H106.818ZM127.307 14.7273L133.307 24.4091H133.489L139.489 14.7273H142.807L135.489 26.3636L142.807 38H139.489L133.489 28.5H133.307L127.307 38H123.989L131.489 26.3636L123.989 14.7273H127.307ZM146.474 38V14.7273H154.338C156.164 14.7273 157.656 15.0568 158.815 15.7159C159.982 16.3674 160.846 17.25 161.406 18.3636C161.967 19.4773 162.247 20.7197 162.247 22.0909C162.247 23.4621 161.967 24.7083 161.406 25.8295C160.853 26.9508 159.997 27.8447 158.838 28.5114C157.679 29.1705 156.194 29.5 154.384 29.5H148.747V27H154.293C155.543 27 156.546 26.7841 157.304 26.3523C158.062 25.9205 158.611 25.3371 158.952 24.6023C159.3 23.8598 159.474 23.0227 159.474 22.0909C159.474 21.1591 159.3 20.3258 158.952 19.5909C158.611 18.8561 158.058 18.2803 157.293 17.8636C156.527 17.4394 155.512 17.2273 154.247 17.2273H149.293V38H146.474ZM166.787 38V14.7273H174.651C176.469 14.7273 177.961 15.0379 179.128 15.6591C180.295 16.2727 181.158 17.1174 181.719 18.1932C182.279 19.2689 182.56 20.4924 182.56 21.8636C182.56 23.2348 182.279 24.4508 181.719 25.5114C181.158 26.572 180.298 27.4053 179.139 28.0114C177.98 28.6098 176.499 28.9091 174.696 28.9091H168.332V26.3636H174.605C175.848 26.3636 176.848 26.1818 177.605 25.8182C178.37 25.4545 178.923 24.9394 179.264 24.2727C179.613 23.5985 179.787 22.7955 179.787 21.8636C179.787 20.9318 179.613 20.1174 179.264 19.4205C178.916 18.7235 178.359 18.1856 177.594 17.8068C176.829 17.4205 175.817 17.2273 174.56 17.2273H169.605V38H166.787ZM177.741 27.5455L183.469 38H180.196L174.56 27.5455H177.741ZM187.256 38V14.7273H201.301V17.2273H190.074V25.0909H200.574V27.5909H190.074V35.5H201.483V38H187.256ZM219.108 20.5455C218.972 19.3939 218.419 18.5 217.449 17.8636C216.479 17.2273 215.29 16.9091 213.881 16.9091C212.85 16.9091 211.949 17.0758 211.176 17.4091C210.411 17.7424 209.813 18.2008 209.381 18.7841C208.956 19.3674 208.744 20.0303 208.744 20.7727C208.744 21.3939 208.892 21.928 209.188 22.375C209.491 22.8144 209.877 23.1818 210.347 23.4773C210.816 23.7652 211.309 24.0038 211.824 24.1932C212.339 24.375 212.812 24.5227 213.244 24.6364L215.608 25.2727C216.214 25.4318 216.888 25.6515 217.631 25.9318C218.381 26.2121 219.097 26.5947 219.778 27.0795C220.468 27.5568 221.036 28.1705 221.483 28.9205C221.93 29.6705 222.153 30.5909 222.153 31.6818C222.153 32.9394 221.824 34.0758 221.165 35.0909C220.513 36.1061 219.559 36.9129 218.301 37.5114C217.051 38.1098 215.532 38.4091 213.744 38.4091C212.078 38.4091 210.634 38.1402 209.415 37.6023C208.203 37.0644 207.248 36.3144 206.551 35.3523C205.862 34.3902 205.472 33.2727 205.381 32H208.29C208.366 32.8788 208.661 33.6061 209.176 34.1818C209.699 34.75 210.358 35.1742 211.153 35.4545C211.956 35.7273 212.82 35.8636 213.744 35.8636C214.82 35.8636 215.786 35.6894 216.642 35.3409C217.498 34.9848 218.176 34.4924 218.676 33.8636C219.176 33.2273 219.426 32.4848 219.426 31.6364C219.426 30.8636 219.21 30.2348 218.778 29.75C218.347 29.2652 217.778 28.8712 217.074 28.5682C216.369 28.2652 215.608 28 214.79 27.7727L211.926 26.9545C210.108 26.4318 208.669 25.6856 207.608 24.7159C206.547 23.7462 206.017 22.4773 206.017 20.9091C206.017 19.6061 206.369 18.4697 207.074 17.5C207.786 16.5227 208.741 15.7652 209.938 15.2273C211.142 14.6818 212.487 14.4091 213.972 14.4091C215.472 14.4091 216.805 14.678 217.972 15.2159C219.138 15.7462 220.063 16.4735 220.744 17.3977C221.434 18.322 221.797 19.3712 221.835 20.5455H219.108ZM239.514 20.5455C239.378 19.3939 238.825 18.5 237.855 17.8636C236.885 17.2273 235.696 16.9091 234.287 16.9091C233.257 16.9091 232.355 17.0758 231.582 17.4091C230.817 17.7424 230.219 18.2008 229.787 18.7841C229.363 19.3674 229.151 20.0303 229.151 20.7727C229.151 21.3939 229.298 21.928 229.594 22.375C229.897 22.8144 230.283 23.1818 230.753 23.4773C231.223 23.7652 231.715 24.0038 232.23 24.1932C232.745 24.375 233.219 24.5227 233.651 24.6364L236.014 25.2727C236.62 25.4318 237.295 25.6515 238.037 25.9318C238.787 26.2121 239.503 26.5947 240.185 27.0795C240.874 27.5568 241.442 28.1705 241.889 28.9205C242.336 29.6705 242.56 30.5909 242.56 31.6818C242.56 32.9394 242.23 34.0758 241.571 35.0909C240.92 36.1061 239.965 36.9129 238.707 37.5114C237.457 38.1098 235.938 38.4091 234.151 38.4091C232.484 38.4091 231.041 38.1402 229.821 37.6023C228.609 37.0644 227.654 36.3144 226.957 35.3523C226.268 34.3902 225.878 33.2727 225.787 32H228.696C228.772 32.8788 229.067 33.6061 229.582 34.1818C230.105 34.75 230.764 35.1742 231.56 35.4545C232.363 35.7273 233.226 35.8636 234.151 35.8636C235.226 35.8636 236.192 35.6894 237.048 35.3409C237.904 34.9848 238.582 34.4924 239.082 33.8636C239.582 33.2273 239.832 32.4848 239.832 31.6364C239.832 30.8636 239.616 30.2348 239.185 29.75C238.753 29.2652 238.185 28.8712 237.48 28.5682C236.776 28.2652 236.014 28 235.196 27.7727L232.332 26.9545C230.514 26.4318 229.075 25.6856 228.014 24.7159C226.954 23.7462 226.423 22.4773 226.423 20.9091C226.423 19.6061 226.776 18.4697 227.48 17.5C228.192 16.5227 229.147 15.7652 230.344 15.2273C231.548 14.6818 232.893 14.4091 234.378 14.4091C235.878 14.4091 237.211 14.678 238.378 15.2159C239.545 15.7462 240.469 16.4735 241.151 17.3977C241.84 18.322 242.204 19.3712 242.241 20.5455H239.514Z" fill="#0710E8"/>
<path d="M108.48 62.352C107.819 61.9893 107.36 61.584 107.104 61.136C106.869 60.6667 106.752 60.0267 106.752 59.216V41.872C106.752 41.4667 106.677 41.1467 106.528 40.912C106.4 40.656 106.144 40.3787 105.76 40.08L107.168 38.8C107.829 39.1627 108.277 39.5787 108.512 40.048C108.768 40.496 108.896 41.1253 108.896 41.936V59.28C108.896 59.664 108.96 59.984 109.088 60.24C109.237 60.4747 109.504 60.752 109.888 61.072L108.48 62.352ZM125.744 59.28C125.744 59.664 125.808 59.984 125.936 60.24C126.085 60.4747 126.352 60.752 126.736 61.072L125.296 62.352C124.762 62.0533 124.368 61.712 124.112 61.328C123.856 60.944 123.706 60.4427 123.664 59.824C123.109 60.6347 122.352 61.264 121.392 61.712C120.432 62.1387 119.354 62.352 118.16 62.352C116.538 62.352 115.29 61.9787 114.416 61.232C113.541 60.464 113.104 59.3653 113.104 57.936C113.104 56.6133 113.562 55.5787 114.48 54.832C115.397 54.0853 116.784 53.6053 118.64 53.392L121.136 53.104C121.84 53.0187 122.362 52.912 122.704 52.784C123.066 52.656 123.312 52.4747 123.44 52.24C123.568 51.984 123.621 51.632 123.6 51.184C123.408 49.2 122.021 48.208 119.44 48.208C118.48 48.208 117.658 48.368 116.976 48.688C116.293 48.9867 115.706 49.4667 115.216 50.128L113.744 49.04C114.746 47.4187 116.645 46.608 119.44 46.608C121.488 46.608 123.045 47.0453 124.112 47.92C125.2 48.7947 125.744 50.0533 125.744 51.696V59.28ZM118.64 60.688C120.133 60.688 121.338 60.304 122.256 59.536C123.173 58.768 123.632 57.7547 123.632 56.496V53.904C123.376 54.096 123.066 54.2453 122.704 54.352C122.341 54.4373 121.84 54.512 121.2 54.576L118.832 54.832C117.616 54.9813 116.688 55.3227 116.048 55.856C115.429 56.368 115.12 57.0507 115.12 57.904C115.12 59.76 116.293 60.688 118.64 60.688ZM142.978 46.96V63.984C142.978 65.7547 142.508 67.0667 141.57 67.92C140.631 68.7947 139.212 69.232 137.314 69.232H133.442V67.536H137.314C139.66 67.536 140.834 66.3413 140.834 63.952V59.44C139.788 61.3813 138.06 62.352 135.65 62.352C134.05 62.352 132.791 61.8827 131.874 60.944C130.978 59.984 130.53 58.6827 130.53 57.04V49.712C130.53 49.328 130.455 49.0187 130.306 48.784C130.178 48.528 129.922 48.24 129.538 47.92L130.978 46.64C131.618 47.0027 132.055 47.4187 132.29 47.888C132.546 48.336 132.674 48.9653 132.674 49.776V56.88C132.674 58.0747 132.972 59.0027 133.57 59.664C134.188 60.304 135.052 60.624 136.161 60.624C137.42 60.624 138.487 60.1973 139.362 59.344C140.236 58.4693 140.727 57.3707 140.834 56.048V46.96H142.978ZM152.788 62.352C150.783 62.352 149.215 61.8507 148.084 60.848C146.975 59.824 146.42 58.3947 146.42 56.56V52.4C146.42 50.5653 146.975 49.1467 148.084 48.144C149.215 47.12 150.783 46.608 152.788 46.608C154.793 46.608 156.351 47.12 157.46 48.144C158.591 49.1467 159.156 50.5653 159.156 52.4V56.56C159.156 58.3947 158.591 59.824 157.46 60.848C156.351 61.8507 154.793 62.352 152.788 62.352ZM152.788 60.624C154.132 60.624 155.167 60.272 155.892 59.568C156.639 58.864 157.012 57.8613 157.012 56.56V52.4C157.012 51.0987 156.639 50.096 155.892 49.392C155.167 48.688 154.132 48.336 152.788 48.336C151.444 48.336 150.399 48.688 149.652 49.392C148.927 50.096 148.564 51.0987 148.564 52.4V56.56C148.564 57.8613 148.927 58.864 149.652 59.568C150.399 60.272 151.444 60.624 152.788 60.624ZM175.911 59.28C175.911 59.664 175.975 59.984 176.103 60.24C176.252 60.4747 176.529 60.7627 176.935 61.104L175.495 62.352C174.855 61.9893 174.407 61.584 174.151 61.136C173.895 60.6667 173.767 60.0267 173.767 59.216V58.992C173.233 60.08 172.508 60.912 171.591 61.488C170.673 62.064 169.596 62.352 168.359 62.352C166.801 62.352 165.596 61.8933 164.743 60.976C163.889 60.0373 163.463 58.7253 163.463 57.04V46.96H165.607V56.912C165.607 58.1067 165.895 59.024 166.471 59.664C167.068 60.304 167.9 60.624 168.967 60.624C170.119 60.624 171.111 60.208 171.943 59.376C172.796 58.544 173.404 57.4027 173.767 55.952V46.96H175.911V59.28ZM183.111 48.688V57.648C183.111 59.5467 183.943 60.496 185.607 60.496H187.431V62.192H185.607C184.007 62.192 182.834 61.8293 182.087 61.104C181.34 60.3573 180.967 59.2053 180.967 57.648V43.472C180.967 43.088 180.892 42.7787 180.743 42.544C180.615 42.288 180.359 42 179.975 41.68L181.415 40.4C182.055 40.7627 182.492 41.1787 182.727 41.648C182.983 42.096 183.111 42.7253 183.111 43.536V46.96H187.431V48.688H183.111ZM203.567 59.28C203.567 59.664 203.631 59.984 203.759 60.24C203.908 60.4747 204.185 60.7627 204.591 61.104L203.151 62.352C202.511 61.9893 202.063 61.584 201.807 61.136C201.551 60.6667 201.423 60.0267 201.423 59.216V58.992C200.889 60.08 200.164 60.912 199.247 61.488C198.329 62.064 197.252 62.352 196.015 62.352C194.457 62.352 193.252 61.8933 192.399 60.976C191.545 60.0373 191.119 58.7253 191.119 57.04V46.96H193.263V56.912C193.263 58.1067 193.551 59.024 194.127 59.664C194.724 60.304 195.556 60.624 196.623 60.624C197.775 60.624 198.767 60.208 199.599 59.376C200.452 58.544 201.06 57.4027 201.423 55.952V46.96H203.567V59.28ZM215.983 46.608C217.391 46.608 218.586 46.9493 219.567 47.632C220.549 48.2933 221.285 49.1787 221.775 50.288C222.266 51.3973 222.511 52.624 222.511 53.968V54.992C222.511 56.336 222.266 57.5627 221.775 58.672C221.285 59.7813 220.549 60.6773 219.567 61.36C218.586 62.0213 217.391 62.352 215.983 62.352C213.658 62.352 211.973 61.52 210.927 59.856V69.008H208.783V49.68C208.783 49.296 208.709 48.9867 208.559 48.752C208.431 48.496 208.175 48.208 207.791 47.888L209.199 46.608C209.754 46.928 210.159 47.28 210.415 47.664C210.693 48.048 210.842 48.528 210.863 49.104C211.994 47.44 213.701 46.608 215.983 46.608ZM220.367 53.968C220.367 52.2613 219.93 50.896 219.055 49.872C218.181 48.848 217.018 48.336 215.567 48.336C214.33 48.336 213.338 48.624 212.591 49.2C211.845 49.776 211.29 50.64 210.927 51.792V57.168C211.29 58.32 211.845 59.184 212.591 59.76C213.338 60.336 214.33 60.624 215.567 60.624C217.018 60.624 218.181 60.112 219.055 59.088C219.93 58.064 220.367 56.6987 220.367 54.992V53.968ZM226.68 62.352C226.232 62.352 225.848 62.2027 225.528 61.904C225.229 61.584 225.08 61.2 225.08 60.752C225.08 60.304 225.229 59.92 225.528 59.6C225.848 59.28 226.232 59.12 226.68 59.12C227.128 59.12 227.501 59.28 227.8 59.6C228.12 59.92 228.28 60.304 228.28 60.752C228.28 61.2 228.12 61.584 227.8 61.904C227.501 62.2027 227.128 62.352 226.68 62.352ZM237.854 62.352C235.764 62.352 234.153 61.872 233.022 60.912C231.892 59.952 231.326 58.5653 231.326 56.752V52.208C231.326 50.4373 231.902 49.0613 233.054 48.08C234.206 47.0987 235.817 46.608 237.886 46.608C239.145 46.608 240.233 46.8107 241.15 47.216C242.068 47.6213 242.857 48.24 243.518 49.072L242.046 50.32C241.449 49.5947 240.83 49.0827 240.19 48.784C239.55 48.4853 238.782 48.336 237.886 48.336C236.5 48.336 235.412 48.6773 234.622 49.36C233.854 50.0427 233.47 50.992 233.47 52.208V56.752C233.47 57.9893 233.844 58.9493 234.59 59.632C235.358 60.2933 236.446 60.624 237.854 60.624C238.814 60.624 239.646 60.464 240.35 60.144C241.054 59.824 241.652 59.3333 242.142 58.672L243.614 59.92C242.996 60.752 242.217 61.3707 241.278 61.776C240.34 62.16 239.198 62.352 237.854 62.352ZM253.007 62.352C251.001 62.352 249.433 61.8507 248.303 60.848C247.193 59.824 246.639 58.3947 246.639 56.56V52.4C246.639 50.5653 247.193 49.1467 248.303 48.144C249.433 47.12 251.001 46.608 253.007 46.608C255.012 46.608 256.569 47.12 257.679 48.144C258.809 49.1467 259.375 50.5653 259.375 52.4V56.56C259.375 58.3947 258.809 59.824 257.679 60.848C256.569 61.8507 255.012 62.352 253.007 62.352ZM253.007 60.624C254.351 60.624 255.385 60.272 256.111 59.568C256.857 58.864 257.231 57.8613 257.231 56.56V52.4C257.231 51.0987 256.857 50.096 256.111 49.392C255.385 48.688 254.351 48.336 253.007 48.336C251.663 48.336 250.617 48.688 249.871 49.392C249.145 50.096 248.783 51.0987 248.783 52.4V56.56C248.783 57.8613 249.145 58.864 249.871 59.568C250.617 60.272 251.663 60.624 253.007 60.624ZM280.677 46.608C282.106 46.608 283.216 47.056 284.005 47.952C284.794 48.848 285.189 50.1067 285.189 51.728V62H283.045V52.048C283.045 50.8533 282.789 49.936 282.277 49.296C281.765 48.656 281.04 48.336 280.101 48.336C279.034 48.336 278.085 48.784 277.253 49.68C276.442 50.5547 275.888 51.7387 275.589 53.232V62H273.445V52.048C273.445 50.8533 273.189 49.936 272.677 49.296C272.186 48.656 271.472 48.336 270.533 48.336C269.466 48.336 268.517 48.7947 267.685 49.712C266.853 50.608 266.298 51.7813 266.021 53.232V62H263.877V49.68C263.877 49.296 263.802 48.9867 263.653 48.752C263.525 48.496 263.269 48.208 262.885 47.888L264.293 46.608C264.89 46.928 265.317 47.3227 265.573 47.792C265.85 48.2613 265.989 48.848 265.989 49.552V50.064C266.501 48.9547 267.194 48.1013 268.069 47.504C268.965 46.9067 269.978 46.608 271.109 46.608C272.304 46.608 273.274 46.9387 274.021 47.6C274.768 48.2613 275.237 49.2213 275.429 50.48C275.792 49.2853 276.453 48.3467 277.413 47.664C278.373 46.96 279.461 46.608 280.677 46.608Z" fill="black"/>
</svg>
